# xmcd
#
# Track frame offsets: 
#        150
#        22316
#        43711
#        77625
#        102936
#        125793
#
# Disc length: 1980 seconds
#
# Revision: 0
# Processed by: cddbd v1.5.2PL0 Copyright (c) Steve Scherf et al.
# Submitted via: ExactAudioCopy v0.99pb5
#
DISCID=4e07ba06
DTITLE=Various Artist - 孩子，快抓緊媽媽的手
DYEAR=2008
DGENRE=Blues
TTITLE0=孩子，快抓緊媽媽的手 - 大合唱
TTITLE1=孩子，快抓緊媽媽的手 - 母子版
TTITLE2=孩子，快抓緊媽媽的手 - 童星合唱版
TTITLE3=孩子，快抓緊媽媽的手 - 鋼琴沉思版
TTITLE4=孩子，快抓緊媽媽的手 - 周漁原唱版
TTITLE5=孩子，快抓緊媽媽的手 - 原版伴奏音樂
EXTD=
EXTT0=
EXTT1=
EXTT2=
EXTT3=
EXTT4=
EXTT5=
PLAYORDER=
